<svg xmlns="http://www.w3.org/2000/svg" viewBox="0 0 100 100">
   <g transform="translate(0 -197)">
      <path 
      d="M81.402 281.32c-2.1 1.8-14.72-9.29-17.28-8.02-2.56 1.27-1.14 17.99-3.94 18.56-2.8.56-8.0-15.37-10.94-15.55-2.86-.17-10.03 15.02-12.75 14.12-2.71-.90.73-17.33-1.65-18.9-2.38-1.5-16.24 8.01-18.13 5.85-1.9-2.13 9.34-14.64 8.07-17.19-1.28-2.54-18.05-1.14-18.66-3.92-.52-2.79 15.46-8.03 15.63-10.87.173-2.84-15.10-9.98-14.19-12.68.9-2.7 17.42.72 19.007-1.645 1.578-2.374-8.06-16.152-5.918-18.039 2.142-1.886 14.727 9.297 17.288 8.026 2.56-1.27 1.14-17.996 3.944-18.564 2.804-.569 8.08 15.375 10.937 15.547 2.856.173 10.035-15.018 12.749-14.116 2.714.902-.732 17.333 1.655 18.903 2.387 1.57 16.24-8.017 18.138-5.886 1.897 2.131-9.348 14.647-8.07 17.194 1.278 2.546 18.095 1.133 18.667 3.922.571 2.789-15.46 8.036-15.633 10.877-.174 2.84 15.1 9.98 14.194 12.679-.907 2.7-17.429-.728-19.008 1.646-1.578 2.374 8.061 16.151 5.918 18.038z" 
      fill="#fc0"/>
      <ellipse 
      cx="51" 
      cy="247" 
      rx="28" 
      ry="28" 
      fill="#fb0"/>
   </g>
</svg>
