<svg xmlns="http://www.w3.org/2000/svg" xmlns:xlink="http://www.w3.org/1999/xlink" viewBox="0 0 100 100">

   <path d="M80.321 56.659a91.21 83.562 0 012.155-.265c4.509-.515 9.28-2.47 11.16-4.57 2.858-3.195 3.401-6.01 1.957-10.127-1.478-4.215-5.255-7.935-10.453-10.295-1.144-.518-2.832-1.141-3.753-1.384-3.532-.93-7.221-.38-9.392 1.4-.448.37-.76.552-.696.41.912-1.996 1.15-2.618 1.377-3.604a11.33 10.38 0 00-.103-4.794c-.707-2.532-1.853-4.34-4.143-6.543-3.222-3.097-7.562-5.362-12.394-6.466-4.524-1.034-13.09-.143-18.41 1.913-5.211 2.013-8.613 5.505-9.45 9.7-.476 2.395-.02 5.869 1.13 8.575.305.718.555 1.363.556 1.435.002.372-.492-.022-1.83-1.458-3.188-3.425-6.429-5.099-10.53-5.439-3.088-.257-7.657 1.657-10.95 4.584-2.412 2.145-3.953 4.51-4.978 7.637-.656 2.005-.82 5.511-.353 7.634.913 4.164 3.033 7.226 6.45 9.32 2.056 1.26 3.163 1.588 5.939 1.754 3.334.201 65.64.746 66.711.583z" fill="#999"/>
   <path d="M80.321 56.659a99.11 99.11 0 012.155-.265c4.509-.515 9.28-2.47 11.16-4.57 2.858-3.195 3.401-6.01 1.957-10.127-1.478-4.215-3.296-6.956-8.25-11.029-4.078-3.645-11.16-2.6-15.348.75-.448.37-.76.552-.696.41.912-1.996 1.15-2.618 1.377-3.604a9.536 9.536 0 00-.103-4.794c-.707-2.532-1.853-4.34-4.143-6.543-3.222-3.097-7.562-5.362-12.394-6.466-4.524-1.034-13.09-.143-18.41 1.913-5.211 2.013-8.613 5.505-9.45 9.7-.476 2.395-.02 5.869 1.13 8.575.305.718.555 1.363.556 1.435.002.372-.492-.022-1.83-1.458-3.188-3.425-6.429-5.099-10.53-5.439-3.088-.257-7.657 1.657-10.95 4.584-2.412 2.145-3.953 4.51-4.978 7.637-.656 2.005-.82 5.511-.353 7.634.913 4.164 3.033 7.226 6.45 9.32 2.056 1.26 3.163 1.588 5.939 1.754 3.334.201 65.64.746 66.711.583z" fill="#999"/>
   <path d="M32.121 82.024c-1.03-.396-1.676-1.56-1.55-2.64.34-1.105.945-2.25 2.033-2.763.726-.313 1.597-.276 2.209.263.813.681 1.042 1.8 1.139 2.804a2.238 2.238 0 01-1.117 1.847c-.72.418-1.598.473-2.414.541l-.154-.018zM89.93 82.193c-.601-.704-1.317-1.46-1.394-2.43.17-1.016.927-1.864 1.778-2.401.709-.468 1.687-.81 2.477-.37.922.788 1.542 1.96 1.513 3.19.094.782-.388 1.49-1.046 1.868-.627.558-1.506.932-2.352.761-.38-.1-.704-.342-.975-.618zM5.19 75.194c-.598-.205-1.31-.456-1.466-1.152a2.997 2.997 0 01.723-2.985c.593-.779 1.477-1.52 2.529-1.335 1.322.133 2.149 1.424 2.489 2.59.076.741.147 1.57-.37 2.18-.42.647-1.325.626-2.002.818-.665.167-1.269.18-1.903-.116z" fill="#ccc" fill-opacity=".47"/>
   <path d="M15 56.6c.067.267.146.53.2.8.066.328.078 2.567 0 2.8-.047.141-.153.259-.2.4-.08.24.08.56 0 .8-.03.09-.158.116-.2.2-.133.267.133.733 0 1-.042.084-.17.11-.2.2-.14.42.14.98 0 1.4-.047.141-.153.259-.2.4-.184.55.203 2.595 0 3-.042.084-.158.116-.2.2-.105.21 0 .76 0 1 0 .248.094 1.412 0 1.6-.042.084-.158.116-.2.2-.145.29.152 1.848 0 2-.047.047-.153-.047-.2 0-.136.136.13 1.54 0 1.8-.042.084-.158.116-.2.2-.105.21 0 .76 0 1 0 .122.078.722 0 .8-.047.047-.153-.047-.2 0-.087.087.084 1.031 0 1.2-.042.084-.158.116-.2.2-.105.21.16.84 0 1-.047.047-.153-.047-.2 0-.16.16.105.79 0 1-.042.084-.158.116-.2.2-.133.267.133.733 0 1-.042.084-.158.116-.2.2-.127.253 0 .91 0 1.2M12.6 82.4c-.082-.58-.261-1.044-.4-1.6-.032-.13.06-.28 0-.4-.042-.084-.158-.116-.2-.2-.06-.12.06-.28 0-.4-.116-.233-.284-.367-.4-.6-.06-.12.06-.28 0-.4-.042-.084-.158-.116-.2-.2-.06-.12.06-.28 0-.4-.042-.084-.158-.116-.2-.2-.06-.12.06-.28 0-.4-.084-.169-.316-.231-.4-.4-.06-.12.06-.28 0-.4-.16-.32-.64-.48-.8-.8-.03-.06.047-.153 0-.2-.047-.047-.153.047-.2 0-.047-.047.03-.14 0-.2-.042-.084-.158-.116-.2-.2-.03-.06.047-.153 0-.2-.047-.047-.153.047-.2 0-.047-.047.047-.153 0-.2-.047-.047-.153.047-.2 0-.047-.047.03-.14 0-.2-.16-.318-.3-.087-.105-.307M54.6 56.8c-.638.267-.023.846-.2 1.2-.042.084-.158.116-.2.2-.113.226 0 1.305 0 1.6 0 .242.059.766 0 1-.036.145-.164.255-.2.4-.204.816.204 1.784 0 2.6-.036.145-.164.255-.2.4-.125.502.125 1.098 0 1.6-.036.145-.17.254-.2.4-.065.327 0 .667 0 1 0 .552.128 1.49 0 2-.26 1.039-.2-.214-.2.8v3.4c0 .248.094 1.412 0 1.6-.042.084-.158.116-.2.2-.132.265 0 1.628 0 2 0 .19.083.634 0 .8-.042.084-.158.116-.2.2-.105.21 0 .76 0 1 0 .179.12 1-.2 1-.133 0 0-.267 0-.4 0-.469.047.094-.2-.4-.08-.16.08-.44 0-.6-.042-.084-.158-.116-.2-.2-.06-.12.06-.28 0-.4-.042-.084-.158-.116-.2-.2-.09-.179.063-.41 0-.6-.029-.087-.353-.506-.4-.6-.09-.179.063-.41 0-.6-.03-.09-.158-.116-.2-.2-.03-.06.03-.14 0-.2-.107-.213-.293-.187-.4-.4-.03-.06.03-.14 0-.2-.084-.169-.34-.221-.4-.4-.042-.126.042-.274 0-.4-.03-.09-.158-.116-.2-.2-.03-.06.03-.14 0-.2-.084-.169-.316-.231-.4-.4-.03-.06.03-.14 0-.2-.16-.32-.64-.48-.8-.8-.03-.06.03-.14 0-.2-.062-.123-.877-.938-1-1-.06-.03-.14.03-.2 0-.169-.084-.231-.316-.4-.4-.06-.03-.14.03-.2 0-.169-.084-.231-.316-.4-.4-.06-.03-.14.03-.2 0-.084-.042-.116-.158-.2-.2-.12-.06-.28.06-.4 0-.084-.042-.116-.158-.2-.2-.12-.06-.28.06-.4 0-.084-.042-.116-.158-.2-.2a20.196 20.196 0 00-1.4 0c-.084.042-.116.158-.2.2-.179.09-.41-.063-.6 0-.09.03-.116.158-.2.2-.12.06-.28-.06-.4 0-.084.042-.11.17-.2.2-.126.042-.274-.042-.4 0-.179.06-.231.316-.4.4-.06.03-.14-.03-.2 0-.24.12-.36.48-.6.6-.06.03-.153-.047-.2 0-.047.047.047.153 0 .2-.414.414.016-.632-.4.2-.03.06.047.153 0 .2-.047.047-.14-.03-.2 0-.084.042-.116.158-.2.2-.06.03-.153-.047-.2 0-.047.047.047.153 0 .2-.094.094-.306-.094-.4 0-.047.047.047.153 0 .2-.094.094-.306-.094-.4 0-.047.047.047.153 0 .2-.047.047-.14-.03-.2 0-.233.116-.367.284-.6.4-.06.03-.153-.047-.2 0-.414.414.632-.016-.2.4-.06.03-.153-.047-.2 0-.047.047.03.14 0 .2-.12.24-.48.36-.6.6-.03.06.03.14 0 .2-.042.084-.158.116-.2.2-.03.06.03.14 0 .2-.107.213-.293.187-.4.4-.06.12.094.306 0 .4-.047.047-.153-.047-.2 0-.047.047.03.14 0 .2-.042.084-.158.116-.2.2-.03.06.047.153 0 .2-.047.047-.153-.047-.2 0-.047.047.03.14 0 .2-.042.084-.158.116-.2.2-.03.06.047.153 0 .2-.047.047-.153-.047-.2 0 0 .294.047.153-.2.4M73.6 56.6c-.596.193.15.702 0 1-.042.084-.158.116-.2.2-.186.373.143 1.371 0 1.8-.03.09-.158.116-.2.2-.18.359.11 1.358 0 1.8-.036.145-.153.259-.2.4-.14.42.108.97 0 1.4-.036.145-.153.259-.2.4-.166.498.2 2 0 2.4-.042.084-.17.11-.2.2-.216.648.217 1.75 0 2.4-.047.141-.153.259-.2.4-.121.364 0 2.822 0 3.4 0 .177.09.819 0 1-.042.084-.17.11-.2.2-.13.389.183 1.034 0 1.4-.042.084-.158.116-.2.2-.092.183 0 1.142 0 1.4 0 .19.083.634 0 .8-.042.084-.158.116-.2.2-.132.265 0 1.628 0 2 0 .466-.018.235-.2.6-.083.166 0 .61 0 .8 0 .579-.008.208-.2.4-.094.094.133.4 0 .4-.067 0 0-.133 0-.2v-.6c0-.579.008-.208.2-.4.094-.094-.094-.306 0-.4.047-.047.153.047.2 0 .094-.094-.06-.28 0-.4.042-.084.158-.116.2-.2.03-.06-.03-.14 0-.2.042-.084.158-.116.2-.2.03-.06-.047-.153 0-.2.047-.047.153.047.2 0 .047-.047-.03-.14 0-.2.042-.084.158-.116.2-.2.03-.06-.03-.14 0-.2.416-.832-.014.214.4-.2.047-.047-.03-.14 0-.2.084-.169.316-.231.4-.4.03-.06-.047-.153 0-.2.047-.047.14.03.2 0 .832-.416-.214.014.2-.4.047-.047.14.03.2 0 .832-.416-.214.014.2-.4.047-.047.14.03.2 0a.917.917 0 00.4-.4c.03-.06-.047-.153 0-.2.047-.047.14.03.2 0 .24-.12.36-.48.6-.6.06-.03.153.047.2 0 .047-.047-.03-.14 0-.2.221-.442.124-.062.4-.2.832-.416-.214.014.2-.4.414-.414-.016.632.4-.2.03-.06-.047-.153 0-.2.047-.047.14.03.2 0 .169-.084.231-.316.4-.4.06-.03.153.047.2 0 .047-.047-.047-.153 0-.2.047-.047.14.03.2 0 .084-.042.116-.158.2-.2.06-.03.14.03.2 0 .663-.663-.189.094.4-.2.084-.042.116-.158.2-.2.12-.06.28.06.4 0 .084-.042.116-.158.2-.2.12-.06.28.06.4 0 .084-.042.116-.158.2-.2.12-.06.28.06.4 0 .084-.042.116-.158.2-.2.213-.107.587.107.8 0 .084-.042.116-.158.2-.2.213-.107.187.107.4 0 .084-.042.116-.158.2-.2.16-.08.44.08.6 0 .084-.042.116-.158.2-.2.06-.03.137.021.2 0 .141-.047.259-.153.4-.2.318-.106.862 0 1.2 0 .067 0 .153-.047.2 0 .047.047-.047.153 0 .2.047.047.14-.03.2 0 .233.116.367.284.6.4.12.06.306-.094.4 0 .047.047-.047.153 0 .2.094.094.28-.06.4 0 .084.042.116.158.2.2.12.06.306-.094.4 0 .047.047-.047.153 0 .2.094.094.306-.094.4 0 .047.047-.047.153 0 .2.047.047.153-.047.2 0 0 .533-.067-.067.2.2.047.047-.047.153 0 .2.047.047.153-.047.2 0 .047.047-.047.153 0 .2.047.047.153-.047.2 0 .047.047-.047.153 0 .2.047.047.153-.047.2 0 .047.047-.047.153 0 .2.047.047.153-.047.2 0 .094.094-.094.306 0 .4.047.047.153-.047.2 0 .094.094-.094.306 0 .4.047.047.133 0 .2 0 0 .067-.047.153 0 .2.047.047.153-.047.2 0 .094.094-.094.306 0 .4.047.047.153-.047.2 0 .094.094-.094.306 0 .4.047.047.153-.047.2 0 .094.094-.094.306 0 .4.192.192.2-.179.2.4M62.6 57.8v4.6c0 .333.065.673 0 1-.03.146-.17.254-.2.4-.078.392.078.808 0 1.2-.03.146-.17.254-.2.4-.04.196.033.403 0 .6-.035.208-.165.392-.2.6-.033.197 0 .4 0 .6-.067.2-.159.393-.2.6-.065.327.065.673 0 1-.03.146-.17.254-.2.4-.088.44.11.963 0 1.4-.036.145-.153.259-.2.4-.138.414 0 1.148 0 1.6M23.8 56.6v3.8c0 .333.065.673 0 1-.03.146-.17.254-.2.4-.128.642.108 1.354 0 2-.035.208-.17.391-.2.6-.112.784.098 1.614 0 2.4-.034.273-.161.528-.2.8-.066.462.058.937 0 1.4-.034.273-.161.528-.2.8-.102.712.14 1.495 0 2.2-.041.207-.159.393-.2.6-.058.292 0 .936 0 1.2M38.4 59.2c.596.193-.15.702 0 1 .042.084.17.11.2.2.082.246.074 1.178 0 1.4-.03.09-.17.11-.2.2-.16.48.16 1.12 0 1.6-.03.09-.133.133-.2.2v.8" fill="none" stroke-opacity=".47" stroke="#fff"/>
</svg>
