<svg xmlns="http://www.w3.org/2000/svg" viewBox="0 0 100 100">
   <path d="M21.338 60.022c-3.426-.412-5.617-1.04-8.392-2.402-2.89-1.42-4.737-3.474-5.83-6.483-1.048-2.89-.094-7.339 2.347-10.939 3.21-4.735 10.077-8.746 14.972-8.746 2.539 0 4.413.626 5.922 1.977.417.374.707.556.643.405-.883-2.112-1.114-2.77-1.335-3.814-.51-2.403-.181-5.09.914-7.481 2.326-5.08 8.47-9.68 15.15-11.34 1.587-.396 2.3-.471 4.348-.46 9.753.05 17.485 3.058 20.844 8.11 1.924 2.896 2.524 6.515 1.722 10.397-.218 1.053-.638 2.537-.934 3.297-.866 2.228-.708 2.225 1.223-.022 3.121-3.632 6.314-5.43 10.24-5.768 3.179-.274 7.815 1.959 11.038 5.317 4.734 4.93 6.243 11.938 3.984 18.491-1.243 3.607-4.536 7.09-7.915 8.376-1.611.613-3.674.686-25.246.896-32.885.32-42.261.361-43.695.189z" fill="#eee" fill-opacity=".729"/>
   <path d="M15.828 80.256c-3.425-.412-5.617-1.039-8.392-2.402-2.89-1.419-4.737-3.473-5.83-6.483-1.048-2.889-.093-7.339 2.348-10.939 3.21-4.734 10.076-8.745 14.97-8.745 2.54 0 4.414.625 5.923 1.977.417.373.707.555.644.404-.884-2.112-1.115-2.77-1.336-3.813-.509-2.403-.18-5.09.914-7.482 2.326-5.08 8.47-9.679 15.15-11.34 1.588-.395 2.301-.47 4.348-.46 9.753.05 17.485 3.059 20.844 8.11 1.925 2.896 2.524 6.515 1.722 10.397-.218 1.054-.638 2.538-.934 3.298-.866 2.227-.708 2.224 1.224-.023 3.12-3.631 6.313-5.43 10.239-5.768 3.179-.273 7.815 1.96 11.039 5.318 4.733 4.93 6.242 11.938 3.983 18.49-1.243 3.607-4.535 7.091-7.915 8.377-1.611.612-3.674.686-25.246.896-32.885.32-42.261.36-43.695.188z" fill="#eee"/>
</svg>
