<?xml version="1.0" encoding="UTF-8" standalone="no"?>
<svg
   xmlns:dc="http://purl.org/dc/elements/1.1/"
   xmlns:cc="http://creativecommons.org/ns#"
   xmlns:rdf="http://www.w3.org/1999/02/22-rdf-syntax-ns#"
   xmlns:svg="http://www.w3.org/2000/svg"
   xmlns="http://www.w3.org/2000/svg"
   xmlns:xlink="http://www.w3.org/1999/xlink"
   xmlns:sodipodi="http://sodipodi.sourceforge.net/DTD/sodipodi-0.dtd"
   xmlns:inkscape="http://www.inkscape.org/namespaces/inkscape"
   viewBox="0 0 100 100"
   version="1.1"
   id="svg2330"
   sodipodi:docname="sl.svg"
   inkscape:version="0.92.4 (5da689c313, 2019-01-14)">
  <metadata
     id="metadata2334">
    <rdf:RDF>
      <cc:Work
         rdf:about="">
        <dc:format>image/svg+xml</dc:format>
        <dc:type
           rdf:resource="http://purl.org/dc/dcmitype/StillImage" />
        <dc:title></dc:title>
      </cc:Work>
    </rdf:RDF>
  </metadata>
  <sodipodi:namedview
     pagecolor="#ffffff"
     bordercolor="#666666"
     borderopacity="1"
     objecttolerance="10"
     gridtolerance="10"
     guidetolerance="10"
     inkscape:pageopacity="0"
     inkscape:pageshadow="2"
     inkscape:window-width="1920"
     inkscape:window-height="1016"
     id="namedview2332"
     showgrid="false"
     inkscape:zoom="11.554125"
     inkscape:cx="40.193142"
     inkscape:cy="31.584268"
     inkscape:window-x="0"
     inkscape:window-y="27"
     inkscape:window-maximized="1"
     inkscape:current-layer="svg2330" />
  <defs
     id="defs2322">
    <inkscape:path-effect
       effect="powerstroke"
       id="path-effect3232"
       is_visible="true"
       offset_points="51,0.5"
       sort_points="true"
       interpolator_type="CubicBezierJohan"
       interpolator_beta="0.2"
       start_linecap_type="zerowidth"
       linejoin_type="extrp_arc"
       miter_limit="4"
       end_linecap_type="zerowidth" />
    <inkscape:path-effect
       effect="powerstroke"
       id="path-effect3228"
       is_visible="true"
       offset_points="66,0.5"
       sort_points="true"
       interpolator_type="CubicBezierJohan"
       interpolator_beta="0.2"
       start_linecap_type="zerowidth"
       linejoin_type="extrp_arc"
       miter_limit="4"
       end_linecap_type="zerowidth" />
    <inkscape:path-effect
       effect="powerstroke"
       id="path-effect3216"
       is_visible="true"
       offset_points="60,0.5"
       sort_points="true"
       interpolator_type="CubicBezierJohan"
       interpolator_beta="0.2"
       start_linecap_type="zerowidth"
       linejoin_type="extrp_arc"
       miter_limit="4"
       end_linecap_type="zerowidth" />
    <inkscape:path-effect
       effect="powerstroke"
       id="path-effect3212"
       is_visible="true"
       offset_points="50,0.5"
       sort_points="true"
       interpolator_type="CubicBezierJohan"
       interpolator_beta="0.2"
       start_linecap_type="zerowidth"
       linejoin_type="extrp_arc"
       miter_limit="4"
       end_linecap_type="zerowidth" />
    <inkscape:path-effect
       effect="powerstroke"
       id="path-effect3208"
       is_visible="true"
       offset_points="27,0.5"
       sort_points="true"
       interpolator_type="CubicBezierJohan"
       interpolator_beta="0.2"
       start_linecap_type="zerowidth"
       linejoin_type="extrp_arc"
       miter_limit="4"
       end_linecap_type="zerowidth" />
    <inkscape:path-effect
       effect="powerstroke"
       id="path-effect3204"
       is_visible="true"
       offset_points="49,0.5"
       sort_points="true"
       interpolator_type="CubicBezierJohan"
       interpolator_beta="0.2"
       start_linecap_type="zerowidth"
       linejoin_type="extrp_arc"
       miter_limit="4"
       end_linecap_type="zerowidth" />
    <inkscape:path-effect
       effect="powerstroke"
       id="path-effect3200"
       is_visible="true"
       offset_points="42,0.5"
       sort_points="true"
       interpolator_type="CubicBezierJohan"
       interpolator_beta="0.2"
       start_linecap_type="zerowidth"
       linejoin_type="extrp_arc"
       miter_limit="4"
       end_linecap_type="zerowidth" />
    <pattern
       inkscape:collect="always"
       xlink:href="#prefix__d"
       id="pattern2363"
       patternTransform="matrix(0.25904486,0,0,0.28351562,4.088439,18.241778)" />
    <pattern
       patternUnits="userSpaceOnUse"
       width="60"
       height="75"
       patternTransform="matrix(.3 0 0 .3 2 12)"
       id="prefix__d">
      <g
         fill="#00f"
         stroke-width=".079"
         stroke-linejoin="round"
         stroke-dashoffset="1.002"
         id="g2319">
        <path
           d="M-30.647 54.968c.465 1.821-.055 2.578-1.566 2.892-1.301-.07-2.208-1.19-1.446-2.82.642-1.3 1.065-1.009 1.477-2.756.61 1.776 1.053 1.512 1.535 2.684zM-18.963 64.087c.465 1.82-.056 2.577-1.566 2.891-1.302-.07-2.208-1.19-1.447-2.819.642-1.3 1.066-1.01 1.477-2.756.61 1.776 1.053 1.511 1.536 2.683z"
           transform="matrix(3.77953 0 0 3.77953 128.268 -197.61)"
           id="path2317" />
      </g>
    </pattern>
  </defs>
  <path
     d="m 8.4739394,-8.0920464 c 0.027568,-0.239905 0.2128839,-0.946517 0.2404516,-1.18724 l -0.09955,-0.0131 -0.1010816,-0.0131 c -0.028334,0.239905 -0.012252,0.973536 -0.03982,1.21344 z"
     id="path2324"
     inkscape:connector-curvature="0"
     style="stroke-width:0.791834" />
  <path
     d="m 80.321022,56.658974 a 91.209362,83.561508 0 0 1 2.1549,-0.264616 c 4.50889,-0.515053 9.280825,-2.469419 11.160303,-4.571217 2.857385,-3.194275 3.401013,-6.008641 1.956844,-10.126233 -1.478207,-4.214932 -5.254698,-7.934657 -10.452662,-10.294453 -1.143986,-0.518834 -2.832627,-1.141623 -3.753798,-1.384501 -3.532017,-0.930877 -7.220828,-0.37991 -9.391202,1.400567 -0.448722,0.36857 -0.761282,0.551911 -0.696293,0.409209 0.911886,-1.995951 1.149141,-2.617795 1.377114,-3.603485 A 11.330509,10.380452 0 0 0 72.573067,23.429996 C 71.86646,20.898202 70.720413,19.089372 68.430378,16.887401 65.207825,13.789518 60.868111,11.525173 56.036344,10.421353 51.51198,9.3874663 42.946017,10.277705 37.6253,12.334138 c -5.210345,2.012962 -8.612385,5.50493 -9.44897,9.700016 -0.476574,2.394762 -0.01961,5.868774 1.129545,8.574457 0.305337,0.71824 0.554972,1.36371 0.556002,1.435535 0.002,0.371405 -0.492047,-0.02173 -1.828932,-1.458215 -3.188512,-3.424869 -6.429631,-5.098557 -10.530027,-5.438775 -3.088453,-0.257054 -7.6582044,1.656676 -10.9509012,4.583503 -2.4117562,2.145267 -3.9528889,4.509787 -4.9782451,7.636966 -0.65606366,2.0054 -0.81904889,5.511544 -0.3527889,7.634131 0.9129196,4.163899 3.0327466,7.225868 6.4492313,9.320104 2.0569043,1.259753 3.1637519,1.587688 5.9396439,1.754017 3.33396,0.201295 65.640415,0.745645 66.711161,0.583097 z"
     id="path2326"
     inkscape:connector-curvature="0"
     style="fill:#999999;stroke-width:0.98735273" />
  <path
     style="fill:#999999;stroke-width:0.98735273"
     inkscape:connector-curvature="0"
     id="path3164"
     d="m 80.321022,56.658974 c 0.717127,-0.09605 1.435478,-0.184257 2.1549,-0.264616 4.50889,-0.515053 9.280825,-2.469419 11.160303,-4.571217 2.857385,-3.194275 3.401013,-6.008641 1.956844,-10.126233 -1.478207,-4.214932 -3.296314,-6.955465 -8.24948,-11.028847 -4.078411,-3.645462 -11.161345,-2.599447 -15.348182,0.75046 -0.448722,0.36857 -0.761282,0.551911 -0.696293,0.409209 0.911886,-1.995951 1.149141,-2.617795 1.377114,-3.603485 0.3745,-1.583557 0.339171,-3.225444 -0.103161,-4.794249 C 71.86646,20.898202 70.720413,19.089372 68.430378,16.887401 65.207825,13.789518 60.868111,11.525173 56.036344,10.421353 51.51198,9.3874663 42.946017,10.277705 37.6253,12.334138 c -5.210345,2.012962 -8.612385,5.50493 -9.44897,9.700016 -0.476574,2.394762 -0.01961,5.868774 1.129545,8.574457 0.305337,0.71824 0.554972,1.36371 0.556002,1.435535 0.002,0.371405 -0.492047,-0.02173 -1.828932,-1.458215 -3.188512,-3.424869 -6.429631,-5.098557 -10.530027,-5.438775 -3.088453,-0.257054 -7.6582044,1.656676 -10.9509012,4.583503 -2.4117562,2.145267 -3.9528889,4.509787 -4.9782451,7.636966 -0.65606366,2.0054 -0.81904889,5.511544 -0.3527889,7.634131 0.9129196,4.163899 3.0327466,7.225868 6.4492313,9.320104 2.0569043,1.259753 3.1637519,1.587688 5.9396439,1.754017 3.33396,0.201295 65.640415,0.745645 66.711161,0.583097 z"
     sodipodi:nodetypes="cccccccccccccccccccccccc" />
  <path
     style="fill:#0000f7;fill-opacity:0.47029704;stroke:none;stroke-width:1.00157475;stroke-linejoin:round;stroke-miterlimit:4;stroke-dasharray:none;stroke-dashoffset:1.00157475;stroke-opacity:1"
     d="M 16.963638,58.802592 C 11.655289,68.4961 6.3469392,78.189607 1.0385898,87.883115 c 0.02885,-1.529035 0.0577,-3.058071 0.08655,-4.587106 C 6.4046392,75.131537 11.684139,66.967064 16.963638,58.802592 Z"
     id="rect3242"
     inkscape:connector-curvature="0" />
  <path
     style="fill:#0000f7;fill-opacity:0.47029704;stroke:none;stroke-width:1.00157475;stroke-linejoin:round;stroke-miterlimit:4;stroke-dasharray:none;stroke-dashoffset:1.00157475;stroke-opacity:1"
     d="M 30.898057,59.581535 11.68414,97.143877 11.77069,92.556771 Z"
     id="rect3242-5"
     inkscape:connector-curvature="0"
     sodipodi:nodetypes="cccc" />
  <path
     style="fill:#0000f7;fill-opacity:0.47029704;stroke:none;stroke-width:1.00157475;stroke-linejoin:round;stroke-miterlimit:4;stroke-dasharray:none;stroke-dashoffset:1.00157475;stroke-opacity:1"
     d="M 48.554088,59.494985 C 43.245739,69.188493 37.937389,78.882 32.62904,88.575508 c 0.02885,-1.529035 0.0577,-3.058071 0.08655,-4.587106 5.279499,-8.164472 10.558999,-16.328945 15.838498,-24.493417 z"
     id="rect3242-5-3"
     inkscape:connector-curvature="0" />
  <path
     style="fill:#0000f7;fill-opacity:0.47029704;stroke:none;stroke-width:1.00157475;stroke-linejoin:round;stroke-miterlimit:4;stroke-dasharray:none;stroke-dashoffset:1.00157475;stroke-opacity:1"
     d="m 67.508358,60.360478 -16.184695,35.225514 0.08655,-4.587106 z"
     id="rect3242-5-3-5"
     inkscape:connector-curvature="0"
     sodipodi:nodetypes="cccc" />
  <path
     style="fill:#0000f7;fill-opacity:0.47029704;stroke:none;stroke-width:1.00157475;stroke-linejoin:round;stroke-miterlimit:4;stroke-dasharray:none;stroke-dashoffset:1.00157475;stroke-opacity:1"
     d="M 88.799456,56.898509 71.403072,88.31586 71.489622,83.728754 Z"
     id="rect3242-5-3-5-6"
     inkscape:connector-curvature="0"
     sodipodi:nodetypes="cccc" />
</svg>
