<?xml version="1.0" encoding="UTF-8" standalone="no"?>
<svg
   xmlns:dc="http://purl.org/dc/elements/1.1/"
   xmlns:cc="http://creativecommons.org/ns#"
   xmlns:rdf="http://www.w3.org/1999/02/22-rdf-syntax-ns#"
   xmlns:svg="http://www.w3.org/2000/svg"
   xmlns="http://www.w3.org/2000/svg"
   xmlns:xlink="http://www.w3.org/1999/xlink"
   xmlns:sodipodi="http://sodipodi.sourceforge.net/DTD/sodipodi-0.dtd"
   xmlns:inkscape="http://www.inkscape.org/namespaces/inkscape"
   viewBox="0 0 100 100"
   version="1.1"
   id="svg880"
   sodipodi:docname="hr1.svg"
   inkscape:version="0.92.4 (5da689c313, 2019-01-14)">
  <metadata
     id="metadata884">
    <rdf:RDF>
      <cc:Work
         rdf:about="">
        <dc:format>image/svg+xml</dc:format>
        <dc:type
           rdf:resource="http://purl.org/dc/dcmitype/StillImage" />
        <dc:title></dc:title>
      </cc:Work>
    </rdf:RDF>
  </metadata>
  <sodipodi:namedview
     pagecolor="#ffffff"
     bordercolor="#666666"
     borderopacity="1"
     objecttolerance="10"
     gridtolerance="10"
     guidetolerance="10"
     inkscape:pageopacity="0"
     inkscape:pageshadow="2"
     inkscape:window-width="1920"
     inkscape:window-height="1016"
     id="namedview882"
     showgrid="false"
     inkscape:zoom="8.17"
     inkscape:cx="50"
     inkscape:cy="50"
     inkscape:window-x="0"
     inkscape:window-y="27"
     inkscape:window-maximized="1"
     inkscape:current-layer="svg880" />
  <defs
     id="defs872"><pattern
   xlink:href="#prefix__a"
   id="prefix__c"
   patternTransform="matrix(.265 0 0 .265 -28 9)" />
/* animation cycle loop last value 9-28 */
      <pattern
   xlink:href="#prefix__b"
   id="prefix__a"
   patternTransform="matrix(.265 0 0 .265 -28 254)" />
<pattern
   patternUnits="userSpaceOnUse"
   width="33.178"
   height="74.87"
   patternTransform="matrix(.265 0 0 .265 27 260)"
   id="prefix__b">
  <path
     d="M24.587 52.915l2.492-10.189L29.863 53c.813 3.74 4.294 13.3 3.05 16.996-.764 2.342-2.748 4.264-5.192 4.748-1.132.404-2.27-.239-3.227-.802-2.3-1.5-2.945-4.42-2.96-6.993 1.31-9.37 1.162-3.664 3.053-14.033zM3.052 10.189L5.545 0l2.783 10.272c.813 3.74 4.294 13.3 3.05 16.996-.764 2.343-2.748 4.265-5.191 4.748-1.132.405-2.27-.238-3.228-.801-2.3-1.5-2.945-4.42-2.959-6.994 1.31-9.37 1.161-3.664 3.052-14.032z"
     fill="#00f"
     fill-opacity=".6"
     id="path869" />
</pattern>
</defs>
  <path
     class="hr-rain"
     d="M 19.812596,38.327354 81.509606,39.350142 82.599,100.076 20.347,100.186 Z"
     id="path878"
     inkscape:connector-curvature="0"
     style="fill:url(#prefix__c)"
     sodipodi:nodetypes="ccccc" />
  <path
     d="M8.794-18.717c.036-.293.278-1.156.314-1.45l-.13-.016-.132-.016c-.037.293-.016 1.189-.052 1.482z"
     id="path874" />
  <path
     d="M19.323 57.544a88.42 88.42 0 00-2.089-.28c-4.371-.545-8.997-2.613-10.819-4.837-2.77-3.38-3.297-6.358-1.897-10.715 1.433-4.46 5.094-8.396 10.133-10.893 1.109-.549 2.746-1.208 3.639-1.465 3.424-.985 7-.402 9.104 1.482.435.39.738.584.675.433-.884-2.112-1.114-2.77-1.335-3.813a10.984 10.984 0 01.1-5.073c.685-2.679 1.796-4.593 4.016-6.923 3.124-3.278 7.331-5.674 12.015-6.842 4.386-1.094 12.69-.152 17.848 2.024 5.051 2.13 8.349 5.825 9.16 10.264.462 2.534.019 6.21-1.095 9.073-.296.76-.538 1.443-.539 1.519-.002.393.477-.023 1.773-1.543 3.091-3.624 6.233-5.395 10.208-5.755 2.994-.272 7.424 1.753 10.616 4.85 2.338 2.27 3.832 4.772 4.826 8.081.636 2.122.794 5.832.342 8.078-.885 4.406-2.94 7.646-6.252 9.862-1.994 1.333-3.067 1.68-5.758 1.856-3.232.213-63.633.789-64.671.617z"
     fill="#999"
     id="path876" />
</svg>
