<svg xmlns="http://www.w3.org/2000/svg" viewBox="0 0 100 100">
   <g transform="matrix(.73123 0 0 .72981 0 -130)">
      <path d="M81.402 281.32c-2.1 1.8-14.72-9.29-17.28-8.02-2.56 1.27-1.14 17.99-3.94 18.56-2.8.56-8-15.37-10.94-15.55-2.86-.17-10.03 15.02-12.75 14.12-2.71-.9.73-17.33-1.65-18.9-2.38-1.5-16.24 8.01-18.13 5.85-1.9-2.13 9.34-14.64 8.07-17.19-1.28-2.54-18.05-1.14-18.66-3.92-.52-2.79 15.46-8.03 15.63-10.87.173-2.84-15.1-9.98-14.19-12.68.9-2.7 17.42.72 19.007-1.645 1.578-2.374-8.06-16.152-5.918-18.039 2.142-1.886 14.727 9.297 17.288 8.026 2.56-1.27 1.14-17.996 3.944-18.564 2.804-.569 8.08 15.375 10.937 15.547 2.856.173 10.035-15.018 12.749-14.116 2.714.902-.732 17.333 1.655 18.903 2.387 1.57 16.24-8.017 18.138-5.886 1.897 2.131-9.348 14.647-8.07 17.194 1.278 2.546 18.095 1.133 18.667 3.922.571 2.789-15.46 8.036-15.633 10.877-.174 2.84 15.1 9.98 14.194 12.679-.907 2.7-17.429-.728-19.008 1.646-1.578 2.374 8.061 16.151 5.918 18.038z" fill="#fc0"/>
      <circle cx="51" cy="247" r="28" fill="#fb0"/>
   </g>
   <path class="lc-cloud" d="M30.35 84.883a88.162 88.162 0 00-1.886-.227c-3.945-.444-8.12-2.124-9.764-3.93-2.5-2.747-2.975-5.168-1.712-8.709 1.293-3.624 4.598-6.822 9.145-8.851 1-.446 2.478-.982 3.284-1.19 3.091-.801 6.319-.328 8.217 1.203.392.317.666.475.61.352-.798-1.716-1.006-2.251-1.206-3.099a8.063 8.063 0 01.09-4.121c.62-2.177 1.621-3.733 3.625-5.627 2.82-2.664 6.616-4.61 10.843-5.56 3.959-.888 11.453-.123 16.11 1.645 4.558 1.731 7.534 4.734 8.265 8.34.418 2.06.018 5.047-.988 7.374-.266.617-.485 1.173-.485 1.234-.002.32.43-.018 1.6-1.253 2.789-2.945 5.625-4.385 9.213-4.678 2.701-.22 6.7 1.425 9.58 3.942 2.11 1.844 3.459 3.878 4.355 6.567.575 1.725.717 4.739.31 6.564-.8 3.58-2.654 6.214-5.643 8.014-1.8 1.084-2.768 1.365-5.197 1.509-2.917.172-57.43.64-58.366.501z" fill="currentColor"/>
</svg>
