<svg xmlns="http://www.w3.org/2000/svg" xmlns:xlink="http://www.w3.org/1999/xlink" viewBox="0 0 100 100">
   <defs>
      <pattern xlink:href="#prefix__a" id="prefix__b" patternTransform="matrix(.3 0 0 .3 3.714 12.49)"/>
      <pattern patternUnits="userSpaceOnUse" width="80" height="75" patternTransform="matrix(.3 0 0 .3 2 12)" id="prefix__a">
         <path d="M-30.647 54.968c.465 1.821-.055 2.578-1.566 2.892-1.301-.07-2.208-1.19-1.446-2.82.642-1.3 1.065-1.009 1.477-2.756.61 1.776 1.053 1.512 1.535 2.684zm11.684 9.119c.465 1.82-.056 2.577-1.566 2.891-1.302-.07-2.208-1.19-1.447-2.819.642-1.3 1.066-1.01 1.477-2.756.61 1.776 1.053 1.511 1.536 2.683z" transform="translate(128.268 -197.61) scale(3.77953)" fill="#00f"/>
      </pattern>
   </defs>
   <path d="M8.794-18.717c.036-.293.278-1.156.314-1.45l-.13-.016-.132-.016c-.037.293-.016 1.189-.052 1.482z"/>
   <path d="M19.323 57.544a88.42 88.42 0 00-2.089-.28c-4.371-.545-8.997-2.613-10.819-4.837-2.77-3.38-3.297-6.358-1.897-10.715 1.433-4.46 5.094-8.396 10.133-10.893 1.109-.549 2.746-1.208 3.639-1.465 3.424-.985 7-.402 9.104 1.482.435.39.738.584.675.433-.884-2.112-1.114-2.77-1.335-3.813a10.984 10.984 0 01.1-5.073c.685-2.679 1.796-4.593 4.016-6.923 3.124-3.278 7.331-5.674 12.015-6.842 4.386-1.094 12.69-.152 17.848 2.024 5.051 2.13 8.349 5.825 9.16 10.264.462 2.534.019 6.21-1.095 9.073-.296.76-.538 1.443-.539 1.519-.002.393.477-.023 1.773-1.543 3.091-3.624 6.233-5.395 10.208-5.755 2.994-.272 7.424 1.753 10.616 4.85 2.338 2.27 3.832 4.772 4.826 8.081.636 2.122.794 5.832.342 8.078-.885 4.406-2.94 7.646-6.252 9.862-1.994 1.333-3.067 1.68-5.758 1.856-3.232.213-63.633.789-64.671.617z" fill="#eee"/>
   <path d="M21.037 58.034l62.92-.446.224 41.655-62.252.11z" fill="url(#prefix__b)"/>
</svg>
