<svg xmlns="http://www.w3.org/2000/svg" xmlns:xlink="http://www.w3.org/1999/xlink" viewBox="0 0 100 100">
   <defs>
      <pattern xlink:href="#prefix__sa" id="prefix__sb" patternTransform="matrix(.25904 0 0 .28352 4.088 18.242)"/>
      <pattern patternUnits="userSpaceOnUse" width="60" height="75" patternTransform="matrix(.3 0 0 .3 2 12)" id="prefix__sa">
         <path d="M-30.647 54.968c.465 1.821-.055 2.578-1.566 2.892-1.301-.07-2.208-1.19-1.446-2.82.642-1.3 1.065-1.009 1.477-2.756.61 1.776 1.053 1.512 1.535 2.684zm11.684 9.119c.465 1.82-.056 2.577-1.566 2.891-1.302-.07-2.208-1.19-1.447-2.819.642-1.3 1.066-1.01 1.477-2.756.61 1.776 1.053 1.511 1.536 2.683z" transform="translate(128.268 -197.61) scale(3.77953)" fill="#00f"/>
      </pattern>
   </defs>
      <path class="s-rain" d="M19.813 38.327L81.51 39.35l1.089 60.726-62.252.11z" fill="url(#prefix__sb)"/>

   <g transform="matrix(.54398 0 0 .55682 42.785 -108.605)">
      <path d="M81.402 281.32c-2.1 1.8-14.72-9.29-17.28-8.02-2.56 1.27-1.14 17.99-3.94 18.56-2.8.56-8-15.37-10.94-15.55-2.86-.17-10.03 15.02-12.75 14.12-2.71-.9.73-17.33-1.65-18.9-2.38-1.5-16.24 8.01-18.13 5.85-1.9-2.13 9.34-14.64 8.07-17.19-1.28-2.54-18.05-1.14-18.66-3.92-.52-2.79 15.46-8.03 15.63-10.87.173-2.84-15.1-9.98-14.19-12.68.9-2.7 17.42.72 19.007-1.645 1.578-2.374-8.06-16.152-5.918-18.039 2.142-1.886 14.727 9.297 17.288 8.026 2.56-1.27 1.14-17.996 3.944-18.564 2.804-.569 8.08 15.375 10.937 15.547 2.856.173 10.035-15.018 12.749-14.116 2.714.902-.732 17.333 1.655 18.903 2.387 1.57 16.24-8.017 18.138-5.886 1.897 2.131-9.348 14.647-8.07 17.194 1.278 2.546 18.095 1.133 18.667 3.922.571 2.789-15.46 8.036-15.633 10.877-.174 2.84 15.1 9.98 14.194 12.679-.907 2.7-17.429-.728-19.008 1.646-1.578 2.374 8.061 16.151 5.918 18.038z" fill="#fc0"/>
      <circle cx="51" cy="247" r="28" fill="#fb0"/>
   </g>
   <path d="M8.474-8.092c.028-.24.213-.947.24-1.187l-.1-.013-.1-.013c-.029.24-.012.973-.04 1.213z"/>
   <path d="M17.567 60.82a76.35 83.562 0 00-1.804-.264c-3.774-.515-7.769-2.47-9.342-4.571-2.392-3.195-2.847-6.009-1.638-10.127 1.237-4.214 4.399-7.934 8.75-10.294.957-.519 2.37-1.142 3.142-1.384 2.956-.931 6.044-.38 7.861 1.4.376.369.637.552.583.41-.763-1.997-.962-2.618-1.153-3.604a9.484 10.38 0 01.087-4.794c.591-2.532 1.55-4.341 3.467-6.543 2.698-3.098 6.33-5.362 10.375-6.466 3.787-1.034 10.958-.144 15.411 1.913 4.362 2.013 7.21 5.505 7.91 9.7.399 2.394.016 5.868-.946 8.574-.255.718-.464 1.364-.465 1.436-.002.371.412-.022 1.531-1.459 2.669-3.424 5.382-5.098 8.814-5.438 2.586-.257 6.41 1.656 9.167 4.583 2.019 2.145 3.309 4.51 4.167 7.637.55 2.006.686 5.512.296 7.634-.765 4.164-2.539 7.226-5.399 9.32-1.722 1.26-2.648 1.588-4.972 1.754-2.79.202-54.946.746-55.842.584z" fill="#999"/>
</svg>
