<svg xmlns="http://www.w3.org/2000/svg" viewBox="0 0 100 100">
   <defs>
      <pattern patternUnits="userSpaceOnUse" width="60" height="75" patternTransform="matrix(.3 0 0 .3 2 12)" id="prefix__a">
         <path d="M-30.647 54.968c.465 1.821-.055 2.578-1.566 2.892-1.301-.07-2.208-1.19-1.446-2.82.642-1.3 1.065-1.009 1.477-2.756.61 1.776 1.053 1.512 1.535 2.684zm11.684 9.119c.465 1.82-.056 2.577-1.566 2.891-1.302-.07-2.208-1.19-1.447-2.819.642-1.3 1.066-1.01 1.477-2.756.61 1.776 1.053 1.511 1.536 2.683z" transform="translate(128.268 -197.61) scale(3.77953)" fill="#00f" stroke-width=".079" stroke-linejoin="round" stroke-dashoffset="1.002"/>
      </pattern>
   </defs>
   <path d="M8.474-8.092c.028-.24.213-.947.24-1.187l-.1-.013-.1-.013c-.029.24-.012.973-.04 1.213z"/>
   <path d="M80.321 56.659a91.21 83.562 0 012.155-.265c4.509-.515 9.28-2.47 11.16-4.57 2.858-3.195 3.401-6.01 1.957-10.127-1.478-4.215-5.255-7.935-10.453-10.295-1.144-.518-2.832-1.141-3.753-1.384-3.532-.93-7.221-.38-9.392 1.4-.448.37-.76.552-.696.41.912-1.996 1.15-2.618 1.377-3.604a11.33 10.38 0 00-.103-4.794c-.707-2.532-1.853-4.34-4.143-6.543-3.222-3.097-7.562-5.362-12.394-6.466-4.524-1.034-13.09-.143-18.41 1.913-5.211 2.013-8.613 5.505-9.45 9.7-.476 2.395-.02 5.869 1.13 8.575.305.718.555 1.363.556 1.435.002.372-.492-.022-1.83-1.458-3.188-3.425-6.429-5.099-10.53-5.439-3.088-.257-7.657 1.657-10.95 4.584-2.412 2.145-3.953 4.51-4.978 7.637-.656 2.005-.82 5.511-.353 7.634.913 4.164 3.033 7.226 6.45 9.32 2.056 1.26 3.163 1.588 5.939 1.754 3.334.201 65.64.746 66.711.583z" fill="#999"/>
   <path d="M80.321 56.659a99.11 99.11 0 012.155-.265c4.509-.515 9.28-2.47 11.16-4.57 2.858-3.195 3.401-6.01 1.957-10.127-1.478-4.215-3.296-6.956-8.25-11.029-4.078-3.645-11.16-2.6-15.348.75-.448.37-.76.552-.696.41.912-1.996 1.15-2.618 1.377-3.604a9.536 9.536 0 00-.103-4.794c-.707-2.532-1.853-4.34-4.143-6.543-3.222-3.097-7.562-5.362-12.394-6.466-4.524-1.034-13.09-.143-18.41 1.913-5.211 2.013-8.613 5.505-9.45 9.7-.476 2.395-.02 5.869 1.13 8.575.305.718.555 1.363.556 1.435.002.372-.492-.022-1.83-1.458-3.188-3.425-6.429-5.099-10.53-5.439-3.088-.257-7.657 1.657-10.95 4.584-2.412 2.145-3.953 4.51-4.978 7.637-.656 2.005-.82 5.511-.353 7.634.913 4.164 3.033 7.226 6.45 9.32 2.056 1.26 3.163 1.588 5.939 1.754 3.334.201 65.64.746 66.711.583z" fill="#999"/>
   <path d="M16.964 58.803L1.039 87.883l.086-4.587 15.839-24.493zM30.898 59.582L11.684 97.144l.087-4.587zM48.554 59.495L32.63 88.575l.087-4.587 15.838-24.493zM67.508 60.36L51.324 95.586l.086-4.587zM88.8 56.899L71.402 88.316l.087-4.587z" fill="#0000f7" fill-opacity=".47"/>
</svg>
