<svg xmlns="http://www.w3.org/2000/svg" viewBox="0 0 100 100">
   <defs>
      <pattern patternUnits="userSpaceOnUse" width="60" height="75" patternTransform="matrix(.3 0 0 .3 2 12)" id="prefix__a">
         <path d="M-30.647 54.968c.465 1.821-.055 2.578-1.566 2.892-1.301-.07-2.208-1.19-1.446-2.82.642-1.3 1.065-1.009 1.477-2.756.61 1.776 1.053 1.512 1.535 2.684zm11.684 9.119c.465 1.82-.056 2.577-1.566 2.891-1.302-.07-2.208-1.19-1.447-2.819.642-1.3 1.066-1.01 1.477-2.756.61 1.776 1.053 1.511 1.536 2.683z" transform="translate(128.268 -197.61) scale(3.77953)" fill="#00f" stroke-width=".079" stroke-linejoin="round" stroke-dashoffset="1.002"/>
      </pattern>
   </defs>
   <path d="M8.474-8.092c.028-.24.213-.947.24-1.187l-.1-.013-.1-.013c-.029.24-.012.973-.04 1.213z"/>
   <path d="M80.321 56.659a91.21 83.562 0 012.155-.265c4.509-.515 9.28-2.47 11.16-4.57 2.858-3.195 3.401-6.01 1.957-10.127-1.478-4.215-5.255-7.935-10.453-10.295-1.144-.518-2.832-1.141-3.753-1.384-3.532-.93-7.221-.38-9.392 1.4-.448.37-.76.552-.696.41.912-1.996 1.15-2.618 1.377-3.604a11.33 10.38 0 00-.103-4.794c-.707-2.532-1.853-4.34-4.143-6.543-3.222-3.097-7.562-5.362-12.394-6.466-4.524-1.034-13.09-.143-18.41 1.913-5.211 2.013-8.613 5.505-9.45 9.7-.476 2.395-.02 5.869 1.13 8.575.305.718.555 1.363.556 1.435.002.372-.492-.022-1.83-1.458-3.188-3.425-6.429-5.099-10.53-5.439-3.088-.257-7.657 1.657-10.95 4.584-2.412 2.145-3.953 4.51-4.978 7.637-.656 2.005-.82 5.511-.353 7.634.913 4.164 3.033 7.226 6.45 9.32 2.056 1.26 3.163 1.588 5.939 1.754 3.334.201 65.64.746 66.711.583z" fill="#999"/>
   <path d="M29.005 73.825c-.411.334-3.364-4.881-3.845-4.696-.48.184-.13 6.392-.638 6.38-.508-.01-.032-5.953-.518-6.136-.487-.183-3.39 4.86-3.798 4.519-.407-.341 3.155-4.979 2.85-5.44-.303-.46-5.465 2.004-5.619 1.468-.154-.537 5.269-1.942 5.274-2.51.006-.567-5.243-2.061-5.075-2.594.168-.533 5.193 1.644 5.5 1.188.309-.455-3.41-4.968-2.99-5.3.418-.333 3.42 4.853 3.91 4.69.49-.163.004-6.39.512-6.402.508-.012.03 6.096.514 6.27.483.175 3.43-4.817 3.85-4.484.418.333-3.076 4.86-2.773 5.314.304.453 5.278-1.862 5.43-1.321.154.541-5.095 2.06-5.084 2.626.011.566 5.401 1.852 5.23 2.386-.171.534-5.345-1.69-5.656-1.242-.31.448 3.337 4.951 2.926 5.284zM53.256 80.503c-.411.334-3.365-4.881-3.845-4.696-.48.184-.13 6.392-.638 6.38-.509-.01-.032-5.953-.519-6.136-.486-.184-3.39 4.86-3.797 4.519-.407-.341 3.154-4.979 2.85-5.44-.303-.46-5.465 2.004-5.62 1.468-.153-.537 5.27-1.942 5.275-2.51.005-.567-5.243-2.061-5.075-2.594.168-.533 5.193 1.644 5.5 1.188.309-.455-3.41-4.968-2.99-5.3.418-.333 3.42 4.853 3.91 4.69.49-.163.003-6.39.511-6.402.508-.012.032 6.096.514 6.27.483.175 3.432-4.817 3.85-4.484.418.333-3.075 4.86-2.772 5.314.304.453 5.277-1.862 5.43-1.321.154.541-5.095 2.06-5.084 2.626.01.566 5.401 1.852 5.23 2.386-.172.534-5.345-1.69-5.656-1.242-.31.448 3.336 4.951 2.926 5.284zM76.022 74.383c-.411.334-3.364-4.881-3.845-4.696-.48.184-.13 6.392-.638 6.381-.508-.011-.032-5.954-.518-6.137-.487-.183-3.39 4.86-3.798 4.519-.407-.34 3.155-4.979 2.85-5.439-.303-.46-5.465 2.003-5.619 1.467-.154-.537 5.269-1.942 5.274-2.51.006-.567-5.243-2.061-5.075-2.594.168-.533 5.193 1.644 5.5 1.188.309-.455-3.41-4.968-2.99-5.3.418-.333 3.42 4.853 3.91 4.69.49-.163.004-6.39.512-6.402.508-.011.03 6.096.514 6.27.483.175 3.43-4.817 3.85-4.484.418.333-3.076 4.861-2.773 5.314.304.453 5.278-1.862 5.43-1.321.154.541-5.095 2.06-5.084 2.626.011.566 5.401 1.853 5.23 2.386-.171.534-5.345-1.69-5.656-1.242-.31.449 3.337 4.951 2.926 5.284z" fill="#f5faff"/>
   <path d="M80.321 56.659a99.11 99.11 0 012.155-.265c4.509-.515 9.28-2.47 11.16-4.57 2.858-3.195 3.401-6.01 1.957-10.127-1.478-4.215-3.296-6.956-8.25-11.029-4.078-3.645-11.16-2.6-15.348.75-.448.37-.76.552-.696.41.912-1.996 1.15-2.618 1.377-3.604a9.536 9.536 0 00-.103-4.794c-.707-2.532-1.853-4.34-4.143-6.543-3.222-3.097-7.562-5.362-12.394-6.466-4.524-1.034-13.09-.143-18.41 1.913-5.211 2.013-8.613 5.505-9.45 9.7-.476 2.395-.02 5.869 1.13 8.575.305.718.555 1.363.556 1.435.002.372-.492-.022-1.83-1.458-3.188-3.425-6.429-5.099-10.53-5.439-3.088-.257-7.657 1.657-10.95 4.584-2.412 2.145-3.953 4.51-4.978 7.637-.656 2.005-.82 5.511-.353 7.634.913 4.164 3.033 7.226 6.45 9.32 2.056 1.26 3.163 1.588 5.939 1.754 3.334.201 65.64.746 66.711.583z" fill="#999"/>
</svg>
