<?xml version="1.0" encoding="UTF-8" standalone="no"?>
<svg
   xmlns:dc="http://purl.org/dc/elements/1.1/"
   xmlns:cc="http://creativecommons.org/ns#"
   xmlns:rdf="http://www.w3.org/1999/02/22-rdf-syntax-ns#"
   xmlns:svg="http://www.w3.org/2000/svg"
   xmlns="http://www.w3.org/2000/svg"
   xmlns:xlink="http://www.w3.org/1999/xlink"
   xmlns:sodipodi="http://sodipodi.sourceforge.net/DTD/sodipodi-0.dtd"
   xmlns:inkscape="http://www.inkscape.org/namespaces/inkscape"
   viewBox="0 0 100 100"
   version="1.1"
   id="svg2330"
   sodipodi:docname="sn.svg"
   inkscape:version="0.92.4 (5da689c313, 2019-01-14)">
  <metadata
     id="metadata2334">
    <rdf:RDF>
      <cc:Work
         rdf:about="">
        <dc:format>image/svg+xml</dc:format>
        <dc:type
           rdf:resource="http://purl.org/dc/dcmitype/StillImage" />
        <dc:title></dc:title>
      </cc:Work>
    </rdf:RDF>
  </metadata>
  <sodipodi:namedview
     pagecolor="#ffffff"
     bordercolor="#666666"
     borderopacity="1"
     objecttolerance="10"
     gridtolerance="10"
     guidetolerance="10"
     inkscape:pageopacity="0"
     inkscape:pageshadow="2"
     inkscape:window-width="1920"
     inkscape:window-height="1016"
     id="namedview2332"
     showgrid="false"
     inkscape:zoom="8.17"
     inkscape:cx="40.84356"
     inkscape:cy="54.439171"
     inkscape:window-x="0"
     inkscape:window-y="27"
     inkscape:window-maximized="1"
     inkscape:current-layer="svg2330" />
  <defs
     id="defs2322">
    <pattern
       inkscape:collect="always"
       xlink:href="#prefix__d"
       id="pattern2363"
       patternTransform="matrix(0.25904486,0,0,0.28351562,4.088439,18.241778)" />
    <pattern
       patternUnits="userSpaceOnUse"
       width="60"
       height="75"
       patternTransform="matrix(.3 0 0 .3 2 12)"
       id="prefix__d">
      <g
         fill="#00f"
         stroke-width=".079"
         stroke-linejoin="round"
         stroke-dashoffset="1.002"
         id="g2319">
        <path
           d="M-30.647 54.968c.465 1.821-.055 2.578-1.566 2.892-1.301-.07-2.208-1.19-1.446-2.82.642-1.3 1.065-1.009 1.477-2.756.61 1.776 1.053 1.512 1.535 2.684zM-18.963 64.087c.465 1.82-.056 2.577-1.566 2.891-1.302-.07-2.208-1.19-1.447-2.819.642-1.3 1.066-1.01 1.477-2.756.61 1.776 1.053 1.511 1.536 2.683z"
           transform="matrix(3.77953 0 0 3.77953 128.268 -197.61)"
           id="path2317" />
      </g>
    </pattern>
  </defs>
  <path
     d="m 8.4739394,-8.0920464 c 0.027568,-0.239905 0.2128839,-0.946517 0.2404516,-1.18724 l -0.09955,-0.0131 -0.1010816,-0.0131 c -0.028334,0.239905 -0.012252,0.973536 -0.03982,1.21344 z"
     id="path2324"
     inkscape:connector-curvature="0"
     style="stroke-width:0.791834" />
  <path
     d="m 80.321022,56.658974 a 91.209362,83.561508 0 0 1 2.1549,-0.264616 c 4.50889,-0.515053 9.280825,-2.469419 11.160303,-4.571217 2.857385,-3.194275 3.401013,-6.008641 1.956844,-10.126233 -1.478207,-4.214932 -5.254698,-7.934657 -10.452662,-10.294453 -1.143986,-0.518834 -2.832627,-1.141623 -3.753798,-1.384501 -3.532017,-0.930877 -7.220828,-0.37991 -9.391202,1.400567 -0.448722,0.36857 -0.761282,0.551911 -0.696293,0.409209 0.911886,-1.995951 1.149141,-2.617795 1.377114,-3.603485 A 11.330509,10.380452 0 0 0 72.573067,23.429996 C 71.86646,20.898202 70.720413,19.089372 68.430378,16.887401 65.207825,13.789518 60.868111,11.525173 56.036344,10.421353 51.51198,9.3874663 42.946017,10.277705 37.6253,12.334138 c -5.210345,2.012962 -8.612385,5.50493 -9.44897,9.700016 -0.476574,2.394762 -0.01961,5.868774 1.129545,8.574457 0.305337,0.71824 0.554972,1.36371 0.556002,1.435535 0.002,0.371405 -0.492047,-0.02173 -1.828932,-1.458215 -3.188512,-3.424869 -6.429631,-5.098557 -10.530027,-5.438775 -3.088453,-0.257054 -7.6582044,1.656676 -10.9509012,4.583503 -2.4117562,2.145267 -3.9528889,4.509787 -4.9782451,7.636966 -0.65606366,2.0054 -0.81904889,5.511544 -0.3527889,7.634131 0.9129196,4.163899 3.0327466,7.225868 6.4492313,9.320104 2.0569043,1.259753 3.1637519,1.587688 5.9396439,1.754017 3.33396,0.201295 65.640415,0.745645 66.711161,0.583097 z"
     id="path2326"
     inkscape:connector-curvature="0"
     style="fill:#999999;stroke-width:0.98735273" />
  <path
     sodipodi:type="star"
     style="fill:#f5faff;fill-opacity:1;stroke:none;stroke-width:1.00157475;stroke-linejoin:round;stroke-miterlimit:4;stroke-dasharray:none;stroke-dashoffset:1.00157475;stroke-opacity:1"
     id="path3103"
     sodipodi:sides="10"
     sodipodi:cx="19.828642"
     sodipodi:cy="67.931458"
     sodipodi:r1="11.482698"
     sodipodi:r2="2.8706746"
     sodipodi:arg1="0.94435113"
     sodipodi:arg2="1.2585104"
     inkscape:flatsided="false"
     inkscape:rounded="0.09"
     inkscape:randomized="0.016"
     d="m 26.650802,77.068171 c -0.635841,0.466548 -5.206518,-6.835004 -5.949709,-6.576295 -0.743191,0.258709 -0.202028,8.950279 -0.988322,8.934817 -0.786295,-0.01546 -0.04926,-8.336058 -0.801746,-8.59279 -0.752488,-0.256732 -5.246366,6.804631 -5.876885,6.327332 -0.630518,-0.477299 4.881663,-6.971182 4.411469,-7.615361 -0.470195,-0.644178 -8.4587047,2.804734 -8.6971263,2.053741 -0.2384216,-0.750993 8.1540263,-2.718887 8.1622823,-3.513238 0.0083,-0.79435 -8.1145348,-2.88707 -7.8543675,-3.632906 0.2601673,-0.745836 8.0366295,2.301376 8.5131095,1.663647 0.47648,-0.637729 -5.277364,-6.956062 -4.62941,-7.421704 0.647955,-0.465643 5.293147,6.795217 6.051236,6.567315 0.758089,-0.227901 0.0062,-8.947105 0.79235,-8.963385 0.786159,-0.01628 0.04836,8.534607 0.795688,8.779108 0.747326,0.2445 5.310017,-6.744599 5.957579,-6.278255 0.647562,0.466344 -4.759675,6.805681 -4.289755,7.440277 0.469921,0.634595 8.166945,-2.607864 8.40394,-1.850088 0.236994,0.757775 -7.886276,2.884441 -7.869096,3.677031 0.01718,0.792591 8.359291,2.593742 8.094056,3.340787 -0.265236,0.747044 -8.271554,-2.36686 -8.752798,-1.738974 -0.481244,0.627885 5.163346,6.932393 4.527505,7.398941 z"
     inkscape:transform-center-x="-0.26047795"
     inkscape:transform-center-y="-0.22441634"
     transform="matrix(0.64616237,0,0,0.71421132,11.784109,18.782486)" />
  <path
     sodipodi:type="star"
     style="fill:#f5faff;fill-opacity:1;stroke:none;stroke-width:1.00157475;stroke-linejoin:round;stroke-miterlimit:4;stroke-dasharray:none;stroke-dashoffset:1.00157475;stroke-opacity:1"
     id="path3103-6"
     sodipodi:sides="10"
     sodipodi:cx="19.828642"
     sodipodi:cy="67.931458"
     sodipodi:r1="11.482698"
     sodipodi:r2="2.8706746"
     sodipodi:arg1="0.94435113"
     sodipodi:arg2="1.2585104"
     inkscape:flatsided="false"
     inkscape:rounded="0.09"
     inkscape:randomized="0.016"
     d="m 26.650802,77.068171 c -0.635841,0.466548 -5.206518,-6.835004 -5.949709,-6.576295 -0.743191,0.258709 -0.202028,8.950279 -0.988322,8.934817 -0.786295,-0.01546 -0.04926,-8.336058 -0.801746,-8.59279 -0.752488,-0.256732 -5.246366,6.804631 -5.876885,6.327332 -0.630518,-0.477299 4.881663,-6.971182 4.411469,-7.615361 -0.470195,-0.644178 -8.4587047,2.804734 -8.6971263,2.053741 -0.2384216,-0.750993 8.1540263,-2.718887 8.1622823,-3.513238 0.0083,-0.79435 -8.1145348,-2.88707 -7.8543675,-3.632906 0.2601673,-0.745836 8.0366295,2.301376 8.5131095,1.663647 0.47648,-0.637729 -5.277364,-6.956062 -4.62941,-7.421704 0.647955,-0.465643 5.293147,6.795217 6.051236,6.567315 0.758089,-0.227901 0.0062,-8.947105 0.79235,-8.963385 0.786159,-0.01628 0.04836,8.534607 0.795688,8.779108 0.747326,0.2445 5.310017,-6.744599 5.957579,-6.278255 0.647562,0.466344 -4.759675,6.805681 -4.289755,7.440277 0.469921,0.634595 8.166945,-2.607864 8.40394,-1.850088 0.236994,0.757775 -7.886276,2.884441 -7.869096,3.677031 0.01718,0.792591 8.359291,2.593742 8.094056,3.340787 -0.265236,0.747044 -8.271554,-2.36686 -8.752798,-1.738974 -0.481244,0.627885 5.163346,6.932393 4.527505,7.398941 z"
     inkscape:transform-center-x="-0.26047795"
     inkscape:transform-center-y="-0.22441634"
     transform="matrix(0.64616237,0,0,0.71421132,36.034863,25.460474)" />
  <path
     sodipodi:type="star"
     style="fill:#f5faff;fill-opacity:1;stroke:none;stroke-width:1.00157475;stroke-linejoin:round;stroke-miterlimit:4;stroke-dasharray:none;stroke-dashoffset:1.00157475;stroke-opacity:1"
     id="path3103-7"
     sodipodi:sides="10"
     sodipodi:cx="19.828642"
     sodipodi:cy="67.931458"
     sodipodi:r1="11.482698"
     sodipodi:r2="2.8706746"
     sodipodi:arg1="0.94435113"
     sodipodi:arg2="1.2585104"
     inkscape:flatsided="false"
     inkscape:rounded="0.09"
     inkscape:randomized="0.016"
     d="m 26.650802,77.068171 c -0.635841,0.466548 -5.206518,-6.835004 -5.949709,-6.576295 -0.743191,0.258709 -0.202028,8.950279 -0.988322,8.934817 -0.786295,-0.01546 -0.04926,-8.336058 -0.801746,-8.59279 -0.752488,-0.256732 -5.246366,6.804631 -5.876885,6.327332 -0.630518,-0.477299 4.881663,-6.971182 4.411469,-7.615361 -0.470195,-0.644178 -8.4587047,2.804734 -8.6971263,2.053741 -0.2384216,-0.750993 8.1540263,-2.718887 8.1622823,-3.513238 0.0083,-0.79435 -8.1145348,-2.88707 -7.8543675,-3.632906 0.2601673,-0.745836 8.0366295,2.301376 8.5131095,1.663647 0.47648,-0.637729 -5.277364,-6.956062 -4.62941,-7.421704 0.647955,-0.465643 5.293147,6.795217 6.051236,6.567315 0.758089,-0.227901 0.0062,-8.947105 0.79235,-8.963385 0.786159,-0.01628 0.04836,8.534607 0.795688,8.779108 0.747326,0.2445 5.310017,-6.744599 5.957579,-6.278255 0.647562,0.466344 -4.759675,6.805681 -4.289755,7.440277 0.469921,0.634595 8.166945,-2.607864 8.40394,-1.850088 0.236994,0.757775 -7.886276,2.884441 -7.869096,3.677031 0.01718,0.792591 8.359291,2.593742 8.094056,3.340787 -0.265236,0.747044 -8.271554,-2.36686 -8.752798,-1.738974 -0.481244,0.627885 5.163346,6.932393 4.527505,7.398941 z"
     inkscape:transform-center-x="-0.26047795"
     inkscape:transform-center-y="-0.22441634"
     transform="matrix(0.64616237,0,0,0.71421132,58.801082,19.340523)" />
  <path
     style="fill:#999999;stroke-width:0.98735273"
     inkscape:connector-curvature="0"
     id="path3164"
     d="m 80.321022,56.658974 c 0.717127,-0.09605 1.435478,-0.184257 2.1549,-0.264616 4.50889,-0.515053 9.280825,-2.469419 11.160303,-4.571217 2.857385,-3.194275 3.401013,-6.008641 1.956844,-10.126233 -1.478207,-4.214932 -3.296314,-6.955465 -8.24948,-11.028847 -4.078411,-3.645462 -11.161345,-2.599447 -15.348182,0.75046 -0.448722,0.36857 -0.761282,0.551911 -0.696293,0.409209 0.911886,-1.995951 1.149141,-2.617795 1.377114,-3.603485 0.3745,-1.583557 0.339171,-3.225444 -0.103161,-4.794249 C 71.86646,20.898202 70.720413,19.089372 68.430378,16.887401 65.207825,13.789518 60.868111,11.525173 56.036344,10.421353 51.51198,9.3874663 42.946017,10.277705 37.6253,12.334138 c -5.210345,2.012962 -8.612385,5.50493 -9.44897,9.700016 -0.476574,2.394762 -0.01961,5.868774 1.129545,8.574457 0.305337,0.71824 0.554972,1.36371 0.556002,1.435535 0.002,0.371405 -0.492047,-0.02173 -1.828932,-1.458215 -3.188512,-3.424869 -6.429631,-5.098557 -10.530027,-5.438775 -3.088453,-0.257054 -7.6582044,1.656676 -10.9509012,4.583503 -2.4117562,2.145267 -3.9528889,4.509787 -4.9782451,7.636966 -0.65606366,2.0054 -0.81904889,5.511544 -0.3527889,7.634131 0.9129196,4.163899 3.0327466,7.225868 6.4492313,9.320104 2.0569043,1.259753 3.1637519,1.587688 5.9396439,1.754017 3.33396,0.201295 65.640415,0.745645 66.711161,0.583097 z"
     sodipodi:nodetypes="cccccccccccccccccccccccc" />
</svg>
