<svg xmlns="http://www.w3.org/2000/svg" viewBox="0 0 100 100">

   <path class="t-bolt" d="M39.864 86.01c0-.059.787-.898 1.748-1.863.962-.966 1.898-1.95 2.082-2.185.183-.235.581-.74.883-1.123.303-.382.55-.753.55-.826 0-.072.042-.131.093-.131.05 0 .166-.165.255-.367.226-.511.077-1.047-.388-1.396-.483-.362-1.408-.808-1.676-.808-.11 0-.24-.04-.289-.088-.048-.048-.37-.173-.715-.277l-.627-.189 1.918-1.924c1.056-1.058 1.92-1.979 1.92-2.047 0-.067.22-.268.489-.447.27-.178.604-.508.743-.734.14-.226.42-.508.622-.626.343-.201 1.72-1.745 2.857-3.205l.776-.992c.158-.2.364-.364.46-.364.094 0 .172-.073.172-.161 0-.088.168-.285.373-.437.438-.323.637-.768.531-1.189-.105-.418-.95-.882-2.427-1.331-1.549-.472-1.565-.482-1.39-.865.075-.166.183-.301.238-.301.141 0 .954-.89.958-1.048.002-.072.169-.252.37-.402.203-.15.368-.351.368-.448 0-.098.141-.27.314-.383.173-.114.61-.597.973-1.074.362-.478.77-1.006.907-1.174.137-.168.527-.664.866-1.102.57-.734 1.44-1.77 1.805-2.149.084-.087.153-.19.153-.229 0-.038.11-.18.245-.314.135-.135.245-.328.245-.429 0-.16.569-.183 4.387-.183 2.413 0 5.225.036 6.25.08l1.864.08-.339.318c-.187.174-.51.455-.718.623-.209.168-1.566 1.573-3.016 3.121-1.45 1.549-2.866 3.022-3.146 3.274-.28.252-.509.51-.509.575 0 .063-.1.187-.222.275-.122.088-.507.478-.856.865-.954 1.06-.855 1.512.39 1.79.376.084.716.205.755.268.039.062.159.114.266.114.108 0 .448.147.755.327l.559.327-.334.112c-.183.06-.333.16-.333.219s-.204.246-.453.415c-.249.169-.693.515-.987.77-1.514 1.307-1.897 1.626-2.83 2.358-.559.438-1.244.981-1.525 1.208-.485.393-3.07 2.78-3.741 3.457-.463.467-2.326 1.945-2.451 1.945-.191 0-.592.757-.529.998.101.386.635.564 1.97.659l1.262.09-.468.283-.897.538c-.236.14-.655.405-.931.588l-1.469.965c-.531.348-1.061.718-1.177.823a2.623 2.623 0 01-.612.359c-.22.092-.477.258-.57.37-.091.11-.24.202-.328.202-.257 0-2.722 1.704-4.399 3.041-.994.793-2.02 1.49-2.02 1.375z" fill="currentColor"/>
   <path class="t-cloud" d="M80.321 56.659a91.21 83.562 0 012.155-.265c4.509-.515 9.28-2.47 11.16-4.57 2.858-3.195 3.401-6.01 1.957-10.127-1.478-4.215-5.255-7.935-10.453-10.295-1.144-.518-2.832-1.141-3.753-1.384-3.532-.93-7.221-.38-9.392 1.4-.448.37-.76.552-.696.41.912-1.996 1.15-2.618 1.377-3.604a11.33 10.38 0 00-.103-4.794c-.707-2.532-1.853-4.34-4.143-6.543-3.222-3.097-7.562-5.362-12.394-6.466-4.524-1.034-13.09-.143-18.41 1.913-5.211 2.013-8.613 5.505-9.45 9.7-.476 2.395-.02 5.869 1.13 8.575.305.718.555 1.363.556 1.435.002.372-.492-.022-1.83-1.458-3.188-3.425-6.429-5.099-10.53-5.439-3.088-.257-7.657 1.657-10.95 4.584-2.412 2.145-3.953 4.51-4.978 7.637-.656 2.005-.82 5.511-.353 7.634.913 4.164 3.033 7.226 6.45 9.32 2.056 1.26 3.163 1.588 5.939 1.754 3.334.201 65.64.746 66.711.583z" fill="currentColor"/>
</svg>
